<svg width="144" height="26" viewBox="0 0 144 26" fill="none" xmlns="http://www.w3.org/2000/svg">
<path d="M0.0859375 1.46484C0.627604 1.54948 1.11849 1.62565 1.55859 1.69336C1.9987 1.74414 2.37956 1.78646 2.70117 1.82031C3.07357 1.87109 3.40365 1.91341 3.69141 1.94727C4.04688 1.99805 4.58008 1.9388 5.29102 1.76953C6.00195 1.58333 6.7806 1.41406 7.62695 1.26172C8.49023 1.09245 9.37044 0.999349 10.2676 0.982422C11.1647 0.948568 11.9857 1.10938 12.7305 1.46484C13.4753 1.82031 14.0846 2.17578 14.5586 2.53125C15.0326 2.88672 15.4049 3.26758 15.6758 3.67383C15.9635 4.06315 16.1667 4.47786 16.2852 4.91797C16.4036 5.35807 16.4714 5.84049 16.4883 6.36523C16.4714 7.14388 16.2852 7.89714 15.9297 8.625C15.7773 8.92969 15.5742 9.2513 15.3203 9.58984C15.0833 9.91146 14.7871 10.2246 14.4316 10.5293C14.0762 10.834 13.653 11.1217 13.1621 11.3926C12.6882 11.6634 12.1296 11.9004 11.4863 12.1035C12.1126 12.2897 12.6289 12.5098 13.0352 12.7637C13.4583 13.0176 13.7969 13.2546 14.0508 13.4746C14.3555 13.7454 14.584 14.0078 14.7363 14.2617C14.9225 14.6172 15.0495 14.9219 15.1172 15.1758C15.1849 15.4297 15.2272 15.6751 15.2441 15.9121C15.278 16.1322 15.3203 16.3607 15.3711 16.5977C15.4219 16.8346 15.5319 17.1055 15.7012 17.4102C15.8366 17.6471 15.9974 17.8926 16.1836 18.1465C16.3529 18.3665 16.5475 18.6035 16.7676 18.8574C17.0046 19.1113 17.2923 19.3568 17.6309 19.5938C17.1569 19.6107 16.7168 19.6191 16.3105 19.6191C15.9212 19.6191 15.5827 19.6191 15.2949 19.6191C14.9564 19.6191 14.6348 19.6107 14.3301 19.5938C14.0254 19.5768 13.6445 19.5684 13.1875 19.5684C12.7982 19.5684 12.2988 19.5684 11.6895 19.5684C11.097 19.5684 10.3776 19.5768 9.53125 19.5938C9.90365 19.306 10.2083 19.0182 10.4453 18.7305C10.6823 18.4427 10.8685 18.1803 11.0039 17.9434C11.1562 17.6725 11.2663 17.4102 11.334 17.1562C11.4186 16.6992 11.4271 16.2253 11.3594 15.7344C11.3086 15.3112 11.1732 14.8457 10.9531 14.3379C10.7331 13.8132 10.3776 13.2884 9.88672 12.7637C9.39583 12.8483 8.98112 12.916 8.64258 12.9668C8.32096 13.0007 8.04167 13.0345 7.80469 13.0684C7.53385 13.1022 7.3138 13.1276 7.14453 13.1445C6.99219 13.1615 6.82292 13.1784 6.63672 13.1953C6.48438 13.2122 6.3151 13.2376 6.12891 13.2715C5.95964 13.2884 5.79883 13.3138 5.64648 13.3477C5.61263 14.0755 5.61263 14.7103 5.64648 15.252C5.68034 15.7767 5.72266 16.2168 5.77344 16.5723C5.84115 16.9954 5.91732 17.3594 6.00195 17.6641C6.08659 17.9688 6.20508 18.265 6.35742 18.5527C6.47591 18.7897 6.62826 19.0436 6.81445 19.3145C7.00065 19.5684 7.21224 19.7799 7.44922 19.9492C7.00911 19.9492 6.58594 19.9492 6.17969 19.9492C5.79036 19.9492 5.4349 19.9408 5.11328 19.9238C4.74089 19.9238 4.38542 19.9154 4.04688 19.8984C3.70833 19.8815 3.32747 19.873 2.9043 19.873C2.54883 19.873 2.12565 19.873 1.63477 19.873C1.16081 19.873 0.644531 19.8815 0.0859375 19.8984C0.526042 19.4414 0.873047 19.0521 1.12695 18.7305C1.38086 18.4089 1.57552 18.138 1.71094 17.918C1.86328 17.681 1.95638 17.4779 1.99023 17.3086C2.02409 17.0378 2.04948 16.5553 2.06641 15.8613C2.10026 15.1504 2.12565 14.3379 2.14258 13.4238C2.15951 12.5098 2.16797 11.5534 2.16797 10.5547C2.16797 9.55599 2.15951 8.625 2.14258 7.76172C2.12565 6.88151 2.10872 6.12826 2.0918 5.50195C2.07487 4.87565 2.05794 4.47786 2.04102 4.30859C1.99023 4.00391 1.88021 3.69922 1.71094 3.39453C1.57552 3.1237 1.38086 2.81901 1.12695 2.48047C0.873047 2.14193 0.526042 1.80339 0.0859375 1.46484ZM9.68359 10.4023C9.85286 10.3008 9.99674 10.1992 10.1152 10.0977C10.2337 9.99609 10.3353 9.83529 10.4199 9.61523C10.5046 9.37826 10.5723 9.04818 10.623 8.625C10.6908 8.20182 10.7669 7.6263 10.8516 6.89844C10.9193 6.17057 10.8685 5.56966 10.6992 5.0957C10.5469 4.62174 10.3353 4.24935 10.0645 3.97852C9.81055 3.69076 9.52279 3.49609 9.20117 3.39453C8.89648 3.27604 8.62565 3.2168 8.38867 3.2168C7.91471 3.2168 7.44922 3.36068 6.99219 3.64844C6.53516 3.9362 6.18815 4.32552 5.95117 4.81641C5.86654 5.03646 5.79036 5.40039 5.72266 5.9082C5.67188 6.34831 5.63802 6.95768 5.62109 7.73633C5.60417 8.51497 5.62956 9.53906 5.69727 10.8086C6.34049 10.9102 6.90755 10.9525 7.39844 10.9355C7.88932 10.9017 8.30404 10.8424 8.64258 10.7578C9.04883 10.6732 9.39583 10.5547 9.68359 10.4023ZM23.5977 15.9121C24.0716 15.9121 24.5117 15.8613 24.918 15.7598C25.2565 15.6751 25.5781 15.5397 25.8828 15.3535C26.2044 15.1504 26.416 14.8542 26.5176 14.4648C26.8561 14.5326 27.1439 14.5918 27.3809 14.6426C27.6178 14.6764 27.821 14.7103 27.9902 14.7441C28.1764 14.7949 28.3372 14.8288 28.4727 14.8457C28.6081 14.8796 28.7689 14.9134 28.9551 14.9473C29.1243 14.9811 29.3275 15.0234 29.5645 15.0742C29.8184 15.1081 30.1146 15.1589 30.4531 15.2266C30.1992 15.1927 29.9368 15.2181 29.666 15.3027C29.4121 15.3874 29.1667 15.4805 28.9297 15.582C28.6589 15.7005 28.4049 15.8444 28.168 16.0137C28.0156 16.1152 27.8379 16.2676 27.6348 16.4707C27.4486 16.6738 27.1777 16.8685 26.8223 17.0547C26.4668 17.2409 25.9928 17.4017 25.4004 17.5371C24.8249 17.6556 24.0801 17.6979 23.166 17.6641C22.0658 17.6302 21.1432 17.4355 20.3984 17.0801C19.6536 16.7077 19.0527 16.2591 18.5957 15.7344C18.1387 15.1927 17.8086 14.6087 17.6055 13.9824C17.4023 13.3561 17.2923 12.7721 17.2754 12.2305C17.2585 11.6888 17.4193 11.1217 17.7578 10.5293C18.0964 9.93685 18.5703 9.39518 19.1797 8.9043C19.806 8.41341 20.5592 8.01562 21.4395 7.71094C22.3197 7.38932 23.2845 7.22852 24.334 7.22852C24.9434 7.22852 25.502 7.30469 26.0098 7.45703C26.5345 7.59245 27.0085 7.77865 27.4316 8.01562C27.8717 8.2526 28.2526 8.52344 28.5742 8.82812C28.8958 9.11589 29.1667 9.41211 29.3867 9.7168C29.6068 10.0384 29.793 10.377 29.9453 10.7324C30.0807 11.0371 30.1908 11.3841 30.2754 11.7734C30.36 12.1628 30.3854 12.5605 30.3516 12.9668C29.0651 13.0007 28.0241 13.026 27.2285 13.043C26.4499 13.0599 25.8405 13.0684 25.4004 13.0684H24.2578H23.3945C23.0898 13.0684 22.6921 13.0768 22.2012 13.0938C21.7103 13.1107 21.1094 13.1361 20.3984 13.1699C20.4831 13.847 20.6947 14.3717 21.0332 14.7441C21.3887 15.0996 21.7611 15.3704 22.1504 15.5566C22.5905 15.7598 23.0729 15.8783 23.5977 15.9121ZM21.3125 11.3418C21.8542 11.3757 22.3027 11.401 22.6582 11.418C23.0306 11.4349 23.3353 11.4518 23.5723 11.4688C23.8262 11.4857 24.0293 11.4941 24.1816 11.4941H24.8164C25.2396 11.4941 26.0267 11.4688 27.1777 11.418C27.127 10.6732 26.9661 10.1061 26.6953 9.7168C26.4414 9.32747 26.1706 9.03971 25.8828 8.85352C25.5443 8.65039 25.1719 8.5319 24.7656 8.49805C23.6654 8.51497 22.8444 8.74349 22.3027 9.18359C21.778 9.6237 21.4479 10.3431 21.3125 11.3418ZM33.2715 9.7168C33.3561 9.61523 33.4069 9.42904 33.4238 9.1582C33.4577 8.87044 33.5254 8.54883 33.627 8.19336C33.7454 7.83789 33.9401 7.46549 34.2109 7.07617C34.4818 6.68685 34.9219 6.32292 35.5312 5.98438C36.1237 5.64583 36.6992 5.44271 37.2578 5.375C37.8164 5.30729 38.3496 5.33268 38.8574 5.45117C39.3652 5.56966 39.8392 5.75586 40.2793 6.00977C40.7363 6.26367 41.151 6.54297 41.5234 6.84766C41.7773 7.05078 41.9805 7.34701 42.1328 7.73633C42.2852 8.10872 42.4036 8.5319 42.4883 9.00586C42.5729 9.47982 42.6322 9.97917 42.666 10.5039C42.7168 11.0117 42.7507 11.5111 42.7676 12.002C42.7845 12.4759 42.793 12.916 42.793 13.3223C42.8099 13.7116 42.8438 14.0332 42.8945 14.2871C42.9622 14.6595 43.0807 14.9811 43.25 15.252C43.4193 15.5059 43.6055 15.7259 43.8086 15.9121C44.0117 16.0814 44.2148 16.2168 44.418 16.3184C44.6211 16.4199 44.7988 16.4961 44.9512 16.5469C45.0527 16.5977 45.1458 16.6315 45.2305 16.6484C45.3997 16.7161 45.5182 16.7161 45.5859 16.6484C45.4844 16.8854 45.3913 17.0885 45.3066 17.2578C45.222 17.4271 45.1543 17.571 45.1035 17.6895C45.0358 17.8249 44.9766 17.9349 44.9258 18.0195C44.875 18.1211 44.8158 18.2142 44.748 18.2988C44.6973 18.3835 44.6296 18.4766 44.5449 18.5781C44.4603 18.6797 44.3757 18.7897 44.291 18.9082C44.071 18.8236 43.8594 18.722 43.6562 18.6035C43.4701 18.485 43.3008 18.375 43.1484 18.2734C42.9622 18.1549 42.793 18.0365 42.6406 17.918C42.4883 17.7995 42.3444 17.6641 42.209 17.5117C42.0905 17.3763 41.9635 17.2324 41.8281 17.0801C41.7096 16.9277 41.6081 16.7585 41.5234 16.5723C41.4219 16.7923 41.1764 17.1055 40.7871 17.5117C40.4147 17.918 39.9238 18.2904 39.3145 18.6289C38.7051 18.9505 37.9941 19.179 37.1816 19.3145C36.3861 19.4499 35.5059 19.3568 34.541 19.0352C34.1178 18.8997 33.7201 18.7051 33.3477 18.4512C32.9753 18.1803 32.6536 17.8587 32.3828 17.4863C32.1289 17.1139 31.9427 16.6908 31.8242 16.2168C31.7227 15.7259 31.7311 15.1842 31.8496 14.5918C31.9681 13.9993 32.1797 13.5 32.4844 13.0938C32.7891 12.6875 33.153 12.3574 33.5762 12.1035C33.9993 11.8496 34.4733 11.6549 34.998 11.5195C35.5228 11.3841 36.0645 11.291 36.623 11.2402C37.0632 11.2233 37.5033 11.2487 37.9434 11.3164C38.3158 11.3841 38.7051 11.5111 39.1113 11.6973C39.5176 11.8665 39.8646 12.1289 40.1523 12.4844C40.1354 11.5872 40.1016 10.8763 40.0508 10.3516C40.0169 9.8099 39.9831 9.39518 39.9492 9.10742C39.8815 8.76888 39.8223 8.5319 39.7715 8.39648C39.6868 8.27799 39.5938 8.14258 39.4922 7.99023C39.4076 7.83789 39.2975 7.70247 39.1621 7.58398C39.0267 7.44857 38.8574 7.33854 38.6543 7.25391C38.4512 7.16927 38.2142 7.13542 37.9434 7.15234C37.6556 7.16927 37.4271 7.24544 37.2578 7.38086C37.0885 7.51628 36.9531 7.67708 36.8516 7.86328C36.7669 8.03255 36.7161 8.21875 36.6992 8.42188C36.6823 8.625 36.6908 8.80273 36.7246 8.95508C36.7585 9.05664 36.8092 9.16667 36.877 9.28516C36.9447 9.38672 37.0378 9.49674 37.1562 9.61523C37.2747 9.73372 37.4355 9.83529 37.6387 9.91992C37.2493 9.9707 36.9023 10.013 36.5977 10.0469C36.293 10.0638 36.0306 10.0892 35.8105 10.123C35.5566 10.1569 35.3366 10.1823 35.1504 10.1992C34.9642 10.2161 34.7441 10.25 34.4902 10.3008C34.2702 10.3346 33.9993 10.377 33.6777 10.4277C33.3561 10.4785 32.9837 10.5462 32.5605 10.6309C32.6621 10.5124 32.7552 10.4023 32.8398 10.3008C32.9245 10.1823 33.0007 10.0807 33.0684 9.99609C33.1361 9.89453 33.2038 9.80143 33.2715 9.7168ZM37.0801 12.7383C36.7754 12.7552 36.4707 12.8314 36.166 12.9668C35.8613 13.0853 35.5905 13.263 35.3535 13.5C35.1165 13.7201 34.9134 13.9824 34.7441 14.2871C34.5918 14.5749 34.5156 14.8965 34.5156 15.252C34.5156 15.6074 34.6003 15.9206 34.7695 16.1914C34.9557 16.4453 35.1927 16.6569 35.4805 16.8262C35.7852 16.9954 36.1068 17.097 36.4453 17.1309C36.8008 17.1647 37.1478 17.1309 37.4863 17.0293C37.8079 16.9108 38.1126 16.7246 38.4004 16.4707C38.6882 16.1999 38.9336 15.9121 39.1367 15.6074C39.3398 15.2858 39.4837 14.9727 39.5684 14.668C39.653 14.3464 39.6615 14.084 39.5938 13.8809C39.4583 13.4408 39.1536 13.1361 38.6797 12.9668C38.2057 12.7806 37.6725 12.7044 37.0801 12.7383ZM57.7988 0.550781C58.1204 0.567708 58.4674 0.576172 58.8398 0.576172C59.1615 0.576172 59.5254 0.584635 59.9316 0.601562C60.3548 0.601562 60.7949 0.584635 61.252 0.550781C60.8457 0.736979 60.4902 1.00781 60.1855 1.36328C59.8809 1.71875 59.6354 2.07422 59.4492 2.42969C59.2122 2.85286 59.0176 3.29297 58.8652 3.75C58.7806 4.02083 58.7129 4.50326 58.6621 5.19727C58.6113 5.87435 58.569 6.66992 58.5352 7.58398C58.5182 8.49805 58.5098 9.46289 58.5098 10.4785C58.5098 11.4941 58.5182 12.4674 58.5352 13.3984C58.5521 14.3125 58.5775 15.125 58.6113 15.8359C58.6452 16.5469 58.6875 17.0462 58.7383 17.334C58.806 17.6725 58.8906 17.9941 58.9922 18.2988C59.0768 18.5697 59.1868 18.849 59.3223 19.1367C59.4577 19.4076 59.627 19.6276 59.8301 19.7969L57.2402 20.9648C57.1048 20.7786 56.9948 20.584 56.9102 20.3809C56.8255 20.1947 56.7578 20.0254 56.707 19.873C56.6393 19.6868 56.597 19.5176 56.5801 19.3652C56.5462 19.1621 56.5124 18.9421 56.4785 18.7051C56.4447 18.4512 56.4023 18.2142 56.3516 17.9941C56.3177 17.7572 56.2923 17.5625 56.2754 17.4102C56.2585 17.2578 56.2585 17.1647 56.2754 17.1309C56.2923 17.097 56.1908 17.2493 55.9707 17.5879C55.7507 17.9095 55.4206 18.2904 54.9805 18.7305C54.5573 19.1536 54.0326 19.5684 53.4062 19.9746C52.7799 20.3639 52.0775 20.6094 51.2988 20.7109C50.5033 20.8125 49.7669 20.6602 49.0898 20.2539C48.4297 19.8477 47.8626 19.2806 47.3887 18.5527C46.9147 17.8079 46.5508 16.9531 46.2969 15.9883C46.0599 15.0065 45.9668 14.0078 46.0176 12.9922C46.0514 12.3151 46.2038 11.7142 46.4746 11.1895C46.7454 10.6478 47.084 10.1823 47.4902 9.79297C47.9134 9.38672 48.3704 9.04818 48.8613 8.77734C49.3691 8.48958 49.86 8.2526 50.334 8.06641C50.8249 7.88021 51.2819 7.74479 51.7051 7.66016C52.1283 7.57552 52.4668 7.51628 52.7207 7.48242C53.0254 7.46549 53.3724 7.51628 53.7617 7.63477C54.1003 7.73633 54.4896 7.9056 54.9297 8.14258C55.3867 8.37956 55.8945 8.73503 56.4531 9.20898C56.3516 7.51628 56.2585 6.16211 56.1738 5.14648C56.0892 4.11393 56.0046 3.32682 55.9199 2.78516C55.8353 2.14193 55.7591 1.70182 55.6914 1.46484C55.6068 1.29557 55.4967 1.1263 55.3613 0.957031C55.2428 0.821615 55.0905 0.686198 54.9043 0.550781C54.735 0.398438 54.5319 0.279948 54.2949 0.195312C54.735 0.279948 55.1582 0.339193 55.5645 0.373047C55.9707 0.406901 56.3431 0.440755 56.6816 0.474609C57.071 0.508464 57.4434 0.533854 57.7988 0.550781ZM51.4258 10.0215C51.1042 10.14 50.8418 10.3431 50.6387 10.6309C50.4525 10.9186 50.3001 11.2656 50.1816 11.6719C50.0632 12.0612 49.9785 12.4844 49.9277 12.9414C49.8939 13.3815 49.8685 13.8132 49.8516 14.2363C49.8516 14.6426 49.8516 15.015 49.8516 15.3535C49.8516 15.6921 49.8516 15.946 49.8516 16.1152C49.8516 16.2168 49.8685 16.403 49.9023 16.6738C49.9531 16.9277 50.0547 17.1986 50.207 17.4863C50.3594 17.7572 50.571 18.0026 50.8418 18.2227C51.1296 18.4427 51.5104 18.5527 51.9844 18.5527C52.3737 18.5189 52.7884 18.3835 53.2285 18.1465C53.6178 17.9434 54.0579 17.6217 54.5488 17.1816C55.0566 16.7246 55.5983 16.0729 56.1738 15.2266C56.14 14.6849 56.1146 14.2363 56.0977 13.8809C56.0977 13.5254 56.0892 13.2376 56.0723 13.0176C56.0553 12.7637 56.0469 12.5605 56.0469 12.4082V12.0273C56.0469 11.9258 56.0469 11.8158 56.0469 11.6973C56.0469 11.5788 56.0553 11.4688 56.0723 11.3672C55.5983 11.0286 55.1751 10.7409 54.8027 10.5039C54.4473 10.25 54.0918 10.0638 53.7363 9.94531C53.3978 9.8099 53.0423 9.75065 52.6699 9.76758C52.3145 9.76758 51.8997 9.85221 51.4258 10.0215Z" fill="black"/>
<path d="M61.3027 20.7109C61.472 20.457 61.6074 20.2201 61.709 20C61.8105 19.7799 61.8952 19.5938 61.9629 19.4414C62.0306 19.2552 62.0814 19.0859 62.1152 18.9336C62.1322 18.832 62.1406 18.5358 62.1406 18.0449C62.1406 17.554 62.1237 16.9362 62.0898 16.1914C62.0729 15.4466 62.0475 14.6087 62.0137 13.6777C61.9967 12.7467 61.9629 11.7988 61.9121 10.834C61.8783 9.86914 61.8359 8.92969 61.7852 8.01562C61.7513 7.10156 61.7174 6.2806 61.6836 5.55273C61.6497 4.80794 61.6159 4.19857 61.582 3.72461C61.5482 3.25065 61.5228 2.97982 61.5059 2.91211C61.472 2.81055 61.4128 2.70898 61.3281 2.60742C61.1589 2.4043 60.8711 2.20964 60.4648 2.02344C61.3281 1.80339 61.9883 1.62565 62.4453 1.49023C62.7161 1.42253 62.9531 1.35482 63.1562 1.28711C63.3424 1.2194 63.5286 1.15169 63.7148 1.08398C63.8672 1.01628 64.0365 0.940104 64.2227 0.855469C64.4089 0.753906 64.5781 0.64388 64.7305 0.525391C64.6458 1.01628 64.5781 1.49023 64.5273 1.94727C64.4766 2.4043 64.4342 2.82747 64.4004 3.2168C64.3665 3.6569 64.3496 4.08008 64.3496 4.48633C64.265 5.31576 64.2142 6.22135 64.1973 7.20312C64.1973 8.16797 64.2057 9.14974 64.2227 10.1484C64.2396 11.1471 64.2734 12.1204 64.3242 13.0684C64.375 14.0163 64.4258 14.8796 64.4766 15.6582C64.5443 16.4199 64.6035 17.0716 64.6543 17.6133C64.722 18.138 64.7728 18.4766 64.8066 18.6289C64.8743 18.8828 64.9421 19.1283 65.0098 19.3652C65.0775 19.5684 65.1536 19.7799 65.2383 20C65.3229 20.237 65.4245 20.4232 65.543 20.5586H63.0801C62.86 20.5586 62.6484 20.5671 62.4453 20.584C62.2591 20.6009 62.0645 20.6178 61.8613 20.6348C61.6582 20.6517 61.472 20.6771 61.3027 20.7109ZM65.1621 7.02539C65.5007 7.07617 65.8053 7.11849 66.0762 7.15234C66.3301 7.16927 66.5586 7.1862 66.7617 7.20312C66.9818 7.22005 67.1934 7.22852 67.3965 7.22852C67.5827 7.22852 67.8197 7.22005 68.1074 7.20312C68.3444 7.1862 68.6491 7.16927 69.0215 7.15234C69.4108 7.11849 69.8678 7.07617 70.3926 7.02539C70.3587 7.0931 70.291 7.30469 70.1895 7.66016C70.0879 7.9987 69.9863 8.42188 69.8848 8.92969C69.7832 9.42057 69.6901 9.9707 69.6055 10.5801C69.5378 11.1725 69.5039 11.765 69.5039 12.3574C69.5208 12.9329 69.597 13.4831 69.7324 14.0078C69.8678 14.5156 70.0879 14.9303 70.3926 15.252C71.0358 15.9121 71.6029 16.3099 72.0938 16.4453C72.6016 16.5807 73.0417 16.5638 73.4141 16.3945C73.7865 16.2253 74.0911 15.9714 74.3281 15.6328C74.5651 15.2943 74.7344 14.9811 74.8359 14.6934C75.0898 13.9147 75.2422 13.0938 75.293 12.2305C75.3268 11.4857 75.2676 10.6562 75.1152 9.74219C74.9629 8.82812 74.599 7.89714 74.0234 6.94922C74.4635 6.98307 74.8444 7.00846 75.166 7.02539C75.4876 7.04232 75.7669 7.05924 76.0039 7.07617C76.2747 7.0931 76.5117 7.11003 76.7148 7.12695C76.901 7.14388 77.1211 7.14388 77.375 7.12695C77.5951 7.12695 77.8574 7.11849 78.1621 7.10156C78.4837 7.06771 78.8392 7.03385 79.2285 7C79.2962 8.65885 79.3555 10.14 79.4062 11.4434C79.457 12.7298 79.4909 13.8724 79.5078 14.8711C79.5417 15.8529 79.5586 16.7077 79.5586 17.4355C79.5586 18.1465 79.5586 18.7474 79.5586 19.2383C79.5417 20.4062 79.4909 21.1764 79.4062 21.5488C79.2708 22.0736 79.0254 22.5983 78.6699 23.123C78.3314 23.6478 77.8997 24.1133 77.375 24.5195C76.8503 24.9427 76.2409 25.2643 75.5469 25.4844C74.8698 25.7214 74.125 25.806 73.3125 25.7383C72.5169 25.6706 71.8822 25.5605 71.4082 25.4082C70.9512 25.2728 70.5872 25.112 70.3164 24.9258C70.0625 24.7396 69.8763 24.5449 69.7578 24.3418C69.6562 24.1387 69.5801 23.9271 69.5293 23.707C69.4785 23.5039 69.4277 23.3092 69.377 23.123C69.3262 22.9368 69.2246 22.776 69.0723 22.6406C68.8861 22.4883 68.6914 22.3359 68.4883 22.1836C68.3021 22.0482 68.099 21.9128 67.8789 21.7773C67.6758 21.6419 67.4727 21.5319 67.2695 21.4473L72.6777 21.1426C72.5254 21.3457 72.4154 21.5319 72.3477 21.7012C72.2799 21.8704 72.2376 22.0143 72.2207 22.1328C72.2038 22.2852 72.2122 22.4121 72.2461 22.5137C72.3138 22.7168 72.4323 22.9368 72.6016 23.1738C72.7878 23.4277 73.0247 23.6224 73.3125 23.7578C73.6003 23.9102 73.9388 23.9609 74.3281 23.9102C74.7344 23.8594 75.1914 23.6478 75.6992 23.2754C76.1224 22.9538 76.4779 22.4375 76.7656 21.7266C77.0026 21.1172 77.1888 20.2624 77.3242 19.1621C77.4596 18.0618 77.4342 16.6146 77.248 14.8203C76.9434 15.8698 76.5286 16.6738 76.0039 17.2324C75.4792 17.791 74.9544 18.1973 74.4297 18.4512C73.8203 18.7559 73.1855 18.9167 72.5254 18.9336C71.6452 18.8997 70.8919 18.7897 70.2656 18.6035C69.6393 18.4004 69.123 18.1296 68.7168 17.791C68.3105 17.4525 67.9889 17.0547 67.752 16.5977C67.5319 16.1237 67.3711 15.599 67.2695 15.0234C67.168 14.4479 67.1172 13.8724 67.1172 13.2969C67.1172 12.7044 67.1172 12.1543 67.1172 11.6465C67.1341 11.1387 67.1426 10.6816 67.1426 10.2754C67.1426 9.85221 67.1003 9.51367 67.0156 9.25977C66.9141 9.00586 66.7786 8.75195 66.6094 8.49805C66.474 8.27799 66.2878 8.04102 66.0508 7.78711C65.7969 7.51628 65.5007 7.26237 65.1621 7.02539ZM96.9004 1.23633C97.4928 1.23633 98.026 1.33789 98.5 1.54102C98.9909 1.72721 99.4395 1.9388 99.8457 2.17578C100.269 2.41276 100.667 2.63281 101.039 2.83594C101.411 3.02214 101.792 3.11523 102.182 3.11523C102.486 3.09831 102.833 3.05599 103.223 2.98828C103.561 2.92057 103.951 2.81901 104.391 2.68359C104.848 2.53125 105.355 2.3112 105.914 2.02344C105.355 2.5651 104.898 3.02214 104.543 3.39453C104.204 3.75 103.942 4.04622 103.756 4.2832C103.536 4.55404 103.375 4.76562 103.273 4.91797C103.172 5.10417 103.02 5.38346 102.816 5.75586C102.63 6.0944 102.376 6.55143 102.055 7.12695C101.733 7.68555 101.327 8.42188 100.836 9.33594C100.836 8.16797 100.717 7.26237 100.48 6.61914C100.26 5.97591 100.015 5.48503 99.7441 5.14648C99.4225 4.75716 99.0586 4.51172 98.6523 4.41016C98.2799 4.35938 97.9076 4.42708 97.5352 4.61328C97.1628 4.78255 96.7904 5.03646 96.418 5.375C96.0625 5.71354 95.7155 6.11979 95.377 6.59375C95.0553 7.05078 94.7591 7.5332 94.4883 8.04102C94.2344 8.54883 94.0228 9.0651 93.8535 9.58984C93.6842 10.0977 93.5742 10.5716 93.5234 11.0117C93.4727 11.401 93.4642 11.8581 93.498 12.3828C93.5319 12.8906 93.6081 13.4154 93.7266 13.957C93.8451 14.4818 93.9974 14.998 94.1836 15.5059C94.3698 16.0137 94.5983 16.4707 94.8691 16.877C95.1569 17.2663 95.4785 17.5879 95.834 17.8418C96.1895 18.0788 96.5957 18.1888 97.0527 18.1719C97.5605 18.138 98.0599 17.9857 98.5508 17.7148C98.974 17.4948 99.4056 17.1562 99.8457 16.6992C100.286 16.2253 100.667 15.5566 100.988 14.6934L104.746 15.3789C103.663 16.6992 102.605 17.6895 101.572 18.3496C100.557 19.0098 99.6426 19.4753 98.8301 19.7461C97.8822 20.0508 96.985 20.1947 96.1387 20.1777C95.0723 20.0592 94.0736 19.7376 93.1426 19.2129C92.2116 18.6882 91.4076 18.0534 90.7305 17.3086C90.0703 16.5469 89.554 15.7174 89.1816 14.8203C88.8092 13.9232 88.6484 13.043 88.6992 12.1797C88.7331 11.6042 88.8516 10.9355 89.0547 10.1738C89.2578 9.39518 89.5286 8.59961 89.8672 7.78711C90.2227 6.97461 90.6458 6.17904 91.1367 5.40039C91.6276 4.62174 92.1693 3.92773 92.7617 3.31836C93.3542 2.69206 93.9974 2.19271 94.6914 1.82031C95.4023 1.43099 96.1387 1.23633 96.9004 1.23633ZM104.873 0.753906C105.262 0.821615 105.618 0.872396 105.939 0.90625C106.261 0.923177 106.532 0.940104 106.752 0.957031C107.006 0.973958 107.226 0.982422 107.412 0.982422C107.666 0.965495 107.962 0.940104 108.301 0.90625C108.589 0.872396 108.936 0.830078 109.342 0.779297C109.765 0.728516 110.247 0.660807 110.789 0.576172C110.535 0.711589 110.324 0.847005 110.154 0.982422C109.985 1.10091 109.85 1.22786 109.748 1.36328C109.63 1.51562 109.536 1.65951 109.469 1.79492C109.384 2.01497 109.291 2.47201 109.189 3.16602C109.088 3.75846 108.961 4.63867 108.809 5.80664C108.673 6.97461 108.495 8.55729 108.275 10.5547C108.885 9.94531 109.46 9.48828 110.002 9.18359C110.561 8.86198 111.051 8.63346 111.475 8.49805C111.965 8.3457 112.423 8.26953 112.846 8.26953C113.37 8.32031 113.904 8.48958 114.445 8.77734C115.004 9.04818 115.52 9.36979 115.994 9.74219C116.485 10.1146 116.908 10.5124 117.264 10.9355C117.636 11.3587 117.898 11.7311 118.051 12.0527C118.152 12.2728 118.203 12.5605 118.203 12.916C118.203 13.2546 118.169 13.627 118.102 14.0332C118.034 14.4395 117.941 14.8542 117.822 15.2773C117.704 15.7005 117.585 16.0983 117.467 16.4707C117.365 16.8431 117.272 17.1732 117.188 17.4609C117.103 17.7318 117.052 17.9264 117.035 18.0449C117.001 18.2988 117.018 18.5443 117.086 18.7812C117.137 18.9844 117.238 19.2044 117.391 19.4414C117.543 19.6615 117.771 19.8477 118.076 20C117.839 19.9661 117.585 19.9408 117.314 19.9238C117.061 19.89 116.815 19.8646 116.578 19.8477C116.307 19.8307 116.036 19.8223 115.766 19.8223H114.852C114.564 19.8223 114.234 19.8307 113.861 19.8477C113.489 19.8477 113.083 19.8561 112.643 19.873C112.88 19.7884 113.083 19.6784 113.252 19.543C113.421 19.3906 113.565 19.2467 113.684 19.1113C113.819 18.959 113.938 18.7982 114.039 18.6289C114.107 18.4935 114.191 18.2396 114.293 17.8672C114.395 17.4779 114.488 17.0378 114.572 16.5469C114.657 16.0391 114.716 15.5059 114.75 14.9473C114.801 14.3887 114.809 13.8555 114.775 13.3477C114.758 12.8229 114.682 12.3574 114.547 11.9512C114.428 11.5449 114.242 11.2487 113.988 11.0625C113.227 10.487 112.533 10.2077 111.906 10.2246C111.297 10.2246 110.713 10.4701 110.154 10.9609C109.951 11.1471 109.757 11.3333 109.57 11.5195C109.401 11.6888 109.215 11.8919 109.012 12.1289C108.809 12.349 108.622 12.5775 108.453 12.8145C108.453 13.0684 108.462 13.3477 108.479 13.6523C108.495 13.957 108.512 14.2533 108.529 14.541C108.546 14.8626 108.572 15.1842 108.605 15.5059C108.639 15.9967 108.69 16.4792 108.758 16.9531C108.809 17.3594 108.876 17.8079 108.961 18.2988C109.046 18.7728 109.156 19.2044 109.291 19.5938C109.071 19.5599 108.842 19.5514 108.605 19.5684C108.368 19.5684 108.14 19.5684 107.92 19.5684C107.666 19.5853 107.421 19.5938 107.184 19.5938C106.964 19.6107 106.735 19.6361 106.498 19.6699C106.295 19.7038 106.075 19.7376 105.838 19.7715C105.601 19.7884 105.372 19.8223 105.152 19.873C105.355 19.4837 105.525 19.1029 105.66 18.7305C105.796 18.3411 105.906 18.0026 105.99 17.7148C106.092 17.3763 106.176 17.0462 106.244 16.7246C106.295 16.4707 106.329 15.9883 106.346 15.2773C106.38 14.5495 106.405 13.7201 106.422 12.7891C106.439 11.8411 106.447 10.8424 106.447 9.79297C106.447 8.74349 106.439 7.74479 106.422 6.79688C106.405 5.84896 106.371 5.01953 106.32 4.30859C106.286 3.59766 106.244 3.10677 106.193 2.83594C106.126 2.5651 106.033 2.29427 105.914 2.02344C105.812 1.78646 105.677 1.55794 105.508 1.33789C105.339 1.10091 105.127 0.90625 104.873 0.753906ZM121.123 9.7168C121.208 9.61523 121.258 9.42904 121.275 9.1582C121.309 8.87044 121.377 8.54883 121.479 8.19336C121.597 7.83789 121.792 7.46549 122.062 7.07617C122.333 6.68685 122.773 6.32292 123.383 5.98438C123.975 5.64583 124.551 5.44271 125.109 5.375C125.668 5.30729 126.201 5.33268 126.709 5.45117C127.217 5.56966 127.691 5.75586 128.131 6.00977C128.588 6.26367 129.003 6.54297 129.375 6.84766C129.629 7.05078 129.832 7.34701 129.984 7.73633C130.137 8.10872 130.255 8.5319 130.34 9.00586C130.424 9.47982 130.484 9.97917 130.518 10.5039C130.568 11.0117 130.602 11.5111 130.619 12.002C130.636 12.4759 130.645 12.916 130.645 13.3223C130.661 13.7116 130.695 14.0332 130.746 14.2871C130.814 14.6595 130.932 14.9811 131.102 15.252C131.271 15.5059 131.457 15.7259 131.66 15.9121C131.863 16.0814 132.066 16.2168 132.27 16.3184C132.473 16.4199 132.65 16.4961 132.803 16.5469C132.904 16.5977 132.997 16.6315 133.082 16.6484C133.251 16.7161 133.37 16.7161 133.438 16.6484C133.336 16.8854 133.243 17.0885 133.158 17.2578C133.074 17.4271 133.006 17.571 132.955 17.6895C132.887 17.8249 132.828 17.9349 132.777 18.0195C132.727 18.1211 132.667 18.2142 132.6 18.2988C132.549 18.3835 132.481 18.4766 132.396 18.5781C132.312 18.6797 132.227 18.7897 132.143 18.9082C131.923 18.8236 131.711 18.722 131.508 18.6035C131.322 18.485 131.152 18.375 131 18.2734C130.814 18.1549 130.645 18.0365 130.492 17.918C130.34 17.7995 130.196 17.6641 130.061 17.5117C129.942 17.3763 129.815 17.2324 129.68 17.0801C129.561 16.9277 129.46 16.7585 129.375 16.5723C129.273 16.7923 129.028 17.1055 128.639 17.5117C128.266 17.918 127.775 18.2904 127.166 18.6289C126.557 18.9505 125.846 19.179 125.033 19.3145C124.238 19.4499 123.357 19.3568 122.393 19.0352C121.969 18.8997 121.572 18.7051 121.199 18.4512C120.827 18.1803 120.505 17.8587 120.234 17.4863C119.98 17.1139 119.794 16.6908 119.676 16.2168C119.574 15.7259 119.583 15.1842 119.701 14.5918C119.82 13.9993 120.031 13.5 120.336 13.0938C120.641 12.6875 121.005 12.3574 121.428 12.1035C121.851 11.8496 122.325 11.6549 122.85 11.5195C123.374 11.3841 123.916 11.291 124.475 11.2402C124.915 11.2233 125.355 11.2487 125.795 11.3164C126.167 11.3841 126.557 11.5111 126.963 11.6973C127.369 11.8665 127.716 12.1289 128.004 12.4844C127.987 11.5872 127.953 10.8763 127.902 10.3516C127.868 9.8099 127.835 9.39518 127.801 9.10742C127.733 8.76888 127.674 8.5319 127.623 8.39648C127.538 8.27799 127.445 8.14258 127.344 7.99023C127.259 7.83789 127.149 7.70247 127.014 7.58398C126.878 7.44857 126.709 7.33854 126.506 7.25391C126.303 7.16927 126.066 7.13542 125.795 7.15234C125.507 7.16927 125.279 7.24544 125.109 7.38086C124.94 7.51628 124.805 7.67708 124.703 7.86328C124.618 8.03255 124.568 8.21875 124.551 8.42188C124.534 8.625 124.542 8.80273 124.576 8.95508C124.61 9.05664 124.661 9.16667 124.729 9.28516C124.796 9.38672 124.889 9.49674 125.008 9.61523C125.126 9.73372 125.287 9.83529 125.49 9.91992C125.101 9.9707 124.754 10.013 124.449 10.0469C124.145 10.0638 123.882 10.0892 123.662 10.123C123.408 10.1569 123.188 10.1823 123.002 10.1992C122.816 10.2161 122.596 10.25 122.342 10.3008C122.122 10.3346 121.851 10.377 121.529 10.4277C121.208 10.4785 120.835 10.5462 120.412 10.6309C120.514 10.5124 120.607 10.4023 120.691 10.3008C120.776 10.1823 120.852 10.0807 120.92 9.99609C120.988 9.89453 121.055 9.80143 121.123 9.7168ZM124.932 12.7383C124.627 12.7552 124.322 12.8314 124.018 12.9668C123.713 13.0853 123.442 13.263 123.205 13.5C122.968 13.7201 122.765 13.9824 122.596 14.2871C122.443 14.5749 122.367 14.8965 122.367 15.252C122.367 15.6074 122.452 15.9206 122.621 16.1914C122.807 16.4453 123.044 16.6569 123.332 16.8262C123.637 16.9954 123.958 17.097 124.297 17.1309C124.652 17.1647 124.999 17.1309 125.338 17.0293C125.66 16.9108 125.964 16.7246 126.252 16.4707C126.54 16.1999 126.785 15.9121 126.988 15.6074C127.191 15.2858 127.335 14.9727 127.42 14.668C127.505 14.3464 127.513 14.084 127.445 13.8809C127.31 13.4408 127.005 13.1361 126.531 12.9668C126.057 12.7806 125.524 12.7044 124.932 12.7383ZM132.879 4.00391C133.387 4.05469 133.81 4.09701 134.148 4.13086C134.504 4.16471 134.792 4.1901 135.012 4.20703C135.266 4.22396 135.469 4.23242 135.621 4.23242C135.773 4.24935 135.977 4.24935 136.23 4.23242C136.451 4.21549 136.738 4.19857 137.094 4.18164C137.449 4.14779 137.898 4.09701 138.439 4.0293C138.321 4.19857 138.228 4.35091 138.16 4.48633C138.092 4.60482 138.033 4.71484 137.982 4.81641L137.83 5.12109C137.796 5.22266 137.762 5.32422 137.729 5.42578C137.695 5.51042 137.661 5.61198 137.627 5.73047C137.61 5.84896 137.593 5.97591 137.576 6.11133H141.486L141.131 8.16797L137.551 7.96484C137.466 8.82812 137.407 9.49674 137.373 9.9707C137.339 10.4447 137.305 10.7917 137.271 11.0117L137.221 11.4688C137.17 12.112 137.119 12.8145 137.068 13.5762C137.018 14.321 137.001 15.015 137.018 15.6582C137.035 16.3014 137.094 16.8431 137.195 17.2832C137.297 17.7064 137.475 17.918 137.729 17.918C137.982 17.918 138.219 17.8503 138.439 17.7148C138.66 17.5794 138.846 17.4186 138.998 17.2324C139.167 17.0462 139.294 16.86 139.379 16.6738C139.464 16.4707 139.506 16.3184 139.506 16.2168C139.506 16.1152 139.48 15.9967 139.43 15.8613C139.345 15.6074 139.193 15.2858 138.973 14.8965C139.464 15.015 139.895 15.1335 140.268 15.252C140.454 15.3197 140.623 15.3874 140.775 15.4551C140.945 15.5228 141.139 15.599 141.359 15.6836C141.546 15.7682 141.783 15.8698 142.07 15.9883C142.358 16.1068 142.697 16.2507 143.086 16.4199C142.714 16.4876 142.443 16.5977 142.273 16.75C142.172 16.8177 142.096 16.8939 142.045 16.9785C141.926 17.1647 141.791 17.4186 141.639 17.7402C141.486 18.0449 141.258 18.3496 140.953 18.6543C140.648 18.959 140.234 19.2298 139.709 19.4668C139.201 19.7038 138.516 19.8392 137.652 19.873C136.755 19.9069 136.07 19.7546 135.596 19.416C135.139 19.0775 134.8 18.6882 134.58 18.248C134.377 17.791 134.258 17.3424 134.225 16.9023C134.191 16.4622 134.165 16.166 134.148 16.0137C134.132 15.8613 134.132 15.4805 134.148 14.8711C134.165 14.2617 134.191 13.5931 134.225 12.8652C134.258 12.1204 134.292 11.4095 134.326 10.7324C134.36 10.0384 134.377 9.5306 134.377 9.20898C134.377 9.03971 134.385 8.86198 134.402 8.67578C134.402 8.52344 134.402 8.36263 134.402 8.19336C134.419 8.00716 134.428 7.82943 134.428 7.66016L130.746 7.63477L130.594 6.1875L134.301 6.28906C134.267 6.10286 134.225 5.93359 134.174 5.78125C134.14 5.61198 134.106 5.47656 134.072 5.375C134.021 5.25651 133.971 5.15495 133.92 5.07031C133.852 4.98568 133.776 4.89258 133.691 4.79102C133.607 4.70638 133.497 4.59635 133.361 4.46094C133.226 4.32552 133.065 4.17318 132.879 4.00391Z" fill="#00DC64"/>
</svg>
