<svg width="226" height="183" viewBox="0 0 226 183" fill="none" xmlns="http://www.w3.org/2000/svg">
<path d="M14.4353 153.815L6.54109 148.712C6.04316 148.383 5.59939 148.247 5.2098 148.305C4.83152 148.355 4.43456 148.521 4.01892 148.805L3.53898 148.143C3.81569 147.977 4.13358 147.773 4.49263 147.53C4.85168 147.287 5.29718 146.972 5.82911 146.587C6.40631 146.168 6.89453 145.806 7.29377 145.499C7.693 145.193 8.04852 144.909 8.36033 144.648L8.84027 145.311C8.13234 145.858 7.76323 146.29 7.73293 146.605C7.70575 146.901 8.00478 147.254 8.63002 147.664L13.7136 150.997L13.6312 151.42L10.9425 142.673L11.7934 142.704L15.0634 153.36L14.4353 153.815ZM20.1224 149.692L12.2401 144.892L10.9425 142.673L11.6215 142.181L19.4746 146.977L19.3735 147.516L17.8244 142.45C17.6313 141.778 17.3946 141.285 17.1145 140.97C16.8263 140.644 16.4863 140.484 16.0948 140.492C15.7032 140.5 15.2486 140.682 14.7311 141.04L14.2512 140.378C14.6103 140.135 14.9071 139.937 15.1416 139.785C15.3793 139.612 15.5984 139.462 15.799 139.334C15.9914 139.194 16.2008 139.043 16.4272 138.879C16.8007 138.608 17.1474 138.348 17.4674 138.099C17.7987 137.841 18.1301 137.584 18.4614 137.326L18.9413 137.988C18.4649 138.403 18.1779 138.853 18.0806 139.337C17.9945 139.814 18.0696 140.442 18.3058 141.22L20.7506 149.237L20.1224 149.692ZM28.6693 143.626C27.8997 144.184 27.145 144.429 26.4052 144.361C25.6684 144.274 25.0539 143.89 24.5617 143.211C24.1761 142.679 23.9888 142.159 23.9999 141.65C24.011 141.142 24.1448 140.648 24.4015 140.168C24.6694 139.68 24.979 139.214 25.3301 138.77C25.6844 138.306 26.0227 137.879 26.345 137.49C26.6786 137.093 26.9165 136.731 27.0589 136.403C27.2043 136.056 27.1868 135.758 27.0063 135.509L26.4156 134.694C26.03 134.162 25.5803 133.875 25.0665 133.833C24.5527 133.791 23.9846 133.996 23.3621 134.447C22.9094 134.775 22.5754 135.112 22.3601 135.458C22.1447 135.804 22.1027 136.068 22.234 136.249C22.316 136.362 22.4418 136.452 22.6112 136.519C22.7725 136.575 22.9404 136.652 23.115 136.75C23.2926 136.828 23.443 136.952 23.5661 137.122C23.7219 137.337 23.7642 137.574 23.6929 137.833C23.6329 138.084 23.4728 138.303 23.2124 138.492C22.9069 138.714 22.5881 138.798 22.2563 138.745C21.9162 138.681 21.6272 138.484 21.3893 138.156C21.0857 137.737 20.9734 137.249 21.0524 136.691C21.1314 136.133 21.3712 135.571 21.7719 135.004C22.1757 134.418 22.7171 133.879 23.3962 133.387C24.0979 132.878 24.7473 132.571 25.3446 132.466C25.9419 132.361 26.5065 132.461 27.0383 132.766C27.5815 133.063 28.1157 133.574 28.6407 134.298L31.8896 138.78C32.0865 139.052 32.2753 139.217 32.4561 139.276C32.6369 139.335 32.8235 139.294 33.0159 139.155C33.2083 139.015 33.3679 138.831 33.4946 138.601C33.6132 138.359 33.7138 138.105 33.7964 137.838L34.5128 138.147C34.4072 138.621 34.2395 139.045 34.0098 139.418C33.7995 139.795 33.485 140.135 33.0663 140.439C31.9798 141.227 31.0755 141.122 30.3536 140.126C30.3781 140.851 30.2528 141.512 29.9774 142.108C29.6939 142.694 29.2579 143.2 28.6693 143.626ZM28.5638 142.123C28.9825 141.82 29.2992 141.435 29.5136 140.968C29.7281 140.502 29.8317 139.978 29.8244 139.396L27.6339 136.375C27.6602 136.649 27.577 136.951 27.3843 137.281C27.1947 137.591 26.9753 137.931 26.726 138.302C26.4685 138.661 26.2388 139.035 26.0367 139.423C25.846 139.803 25.739 140.191 25.7158 140.588C25.6926 140.985 25.8245 141.381 26.1117 141.777C26.4234 142.207 26.794 142.456 27.2235 142.525C27.6643 142.585 28.1111 142.451 28.5638 142.123ZM39.9256 135.467C39.0768 136.082 38.2666 136.298 37.4951 136.115C36.7153 135.921 35.9645 135.325 35.2425 134.329L31.3661 128.982L29.3289 130.459L28.8613 129.813L30.8985 128.337L29.0156 125.739C29.3243 125.498 29.6022 125.262 29.8492 125.031C30.088 124.789 30.296 124.552 30.4731 124.32L32.5282 127.155L35.4991 125.002L35.9667 125.647L32.9958 127.8L37.2169 133.623C37.6107 134.167 38.0094 134.49 38.4131 134.595C38.8087 134.688 39.2271 134.575 39.6685 134.255C40.076 133.959 40.3155 133.587 40.3871 133.138C40.47 132.681 40.3948 132.148 40.1614 131.541L40.7985 131.312C41.203 132.227 41.3312 133.023 41.1832 133.701C41.0465 134.369 40.6273 134.958 39.9256 135.467ZM47.7785 129.774C46.9636 130.365 46.1193 130.701 45.2456 130.782C44.3751 130.843 43.5295 130.653 42.7091 130.212C41.8917 129.751 41.1426 129.051 40.4617 128.112C39.7725 127.161 39.3475 126.218 39.1866 125.281C39.0174 124.333 39.1087 123.447 39.4605 122.622C39.804 121.786 40.4002 121.061 41.249 120.445C41.8828 119.986 42.5128 119.676 43.1389 119.516C43.7651 119.355 44.3427 119.342 44.8717 119.477C45.4039 119.592 45.8259 119.864 46.1376 120.294C46.4166 120.679 46.5274 121.082 46.4703 121.503C46.4162 121.905 46.2081 122.237 45.8459 122.5C45.563 122.705 45.2735 122.794 44.9776 122.767C44.693 122.731 44.4604 122.589 44.2799 122.34C44.124 122.125 44.0339 121.905 44.0096 121.681C43.9966 121.449 43.9862 121.232 43.9783 121.031C43.9817 120.821 43.9342 120.648 43.8357 120.512C43.7044 120.331 43.4733 120.275 43.1423 120.342C42.8112 120.409 42.4477 120.586 42.0515 120.874C41.1687 121.513 40.7333 122.33 40.7451 123.323C40.7487 124.304 41.1976 125.412 42.0919 126.645C42.9861 127.879 43.8975 128.66 44.826 128.988C45.7577 129.297 46.6593 129.135 47.5307 128.504C48.0853 128.102 48.4694 127.607 48.6831 127.021C48.8998 126.415 48.9389 125.73 48.8004 124.968L49.6576 124.864C49.908 125.805 49.8696 126.705 49.5424 127.563C49.2153 128.422 48.6273 129.159 47.7785 129.774ZM58.6594 121.524L58.1795 120.862C58.6693 120.49 58.9432 120.153 59.0012 119.852C59.051 119.54 58.9118 119.157 58.5837 118.705L55.704 114.732C55.1626 113.985 54.6134 113.537 54.0566 113.388C53.503 113.22 52.9432 113.341 52.3773 113.751C51.9133 114.087 51.5719 114.533 51.3531 115.089C51.1375 115.625 51.0574 116.253 51.1128 116.973L50.5883 116.213C50.4938 115.488 50.6003 114.789 50.9076 114.117C51.2149 113.446 51.6854 112.88 52.3192 112.421C53.2133 111.772 54.0991 111.553 54.9764 111.763C55.8538 111.973 56.6698 112.599 57.4246 113.64L60.2304 117.511C60.5586 117.964 60.9241 118.182 61.327 118.166C61.733 118.131 62.2966 117.86 63.0178 117.355L63.4978 118.017C63.3198 118.129 63.078 118.295 62.7724 118.517C62.47 118.719 62.1392 118.941 61.7802 119.184C61.4211 119.427 61.0775 119.668 60.7493 119.906C60.3305 120.209 59.9256 120.52 59.5346 120.838C59.1467 121.137 58.8549 121.365 58.6594 121.524ZM52.429 126.041L51.9491 125.379C52.6652 124.842 53.0976 124.391 53.2461 124.024C53.3865 123.646 53.2926 123.231 52.9644 122.778L46.3929 113.712C45.9991 113.169 45.5828 112.893 45.144 112.883C44.7083 112.853 44.1298 113.091 43.4086 113.597L42.9287 112.935C43.1745 112.774 43.4204 112.613 43.6663 112.452C43.9122 112.291 44.1596 112.12 44.4086 111.94C44.7934 111.661 45.1489 111.377 45.4752 111.089C45.8045 110.781 46.0933 110.477 46.3414 110.176L54.6111 121.584C54.9393 122.037 55.2596 122.288 55.5719 122.338C55.8761 122.377 56.2812 122.221 56.7874 121.871L57.2673 122.533C57.0328 122.686 56.7133 122.9 56.309 123.176C55.9078 123.433 55.4978 123.712 55.0791 124.016C54.615 124.352 54.1366 124.716 53.6437 125.108C53.1426 125.489 52.7377 125.8 52.429 126.041ZM73.3112 111.266C72.4623 111.881 71.6521 112.097 70.8806 111.914C70.1009 111.72 69.35 111.125 68.6281 110.129L64.7516 104.781L62.7144 106.258L62.2468 105.613L64.284 104.136L62.4012 101.538C62.7098 101.297 62.9877 101.062 63.2347 100.831C63.4735 100.588 63.6815 100.351 63.8586 100.119L65.9138 102.955L68.8847 100.801L69.3523 101.446L66.3814 103.6L70.6024 109.423C70.9962 109.966 71.395 110.29 71.7987 110.394C72.1942 110.487 72.6127 110.374 73.0541 110.054C73.4615 109.758 73.701 109.386 73.7726 108.937C73.8556 108.48 73.7804 107.948 73.547 107.34L74.184 107.111C74.5885 108.026 74.7168 108.823 74.5688 109.5C74.4321 110.169 74.0129 110.757 73.3112 111.266ZM81.1425 105.589C80.3616 106.155 79.5451 106.505 78.6929 106.64C77.8438 106.754 76.9921 106.604 76.1376 106.187C75.2832 105.771 74.4704 105.03 73.6992 103.966C72.9198 102.891 72.4651 101.883 72.335 100.941C72.205 99.9997 72.3363 99.1448 72.7291 98.3767C73.1136 97.5973 73.6907 96.9286 74.4603 96.3707C75.2412 95.8047 76.0562 95.4642 76.9053 95.3494C77.7575 95.2151 78.6108 95.3562 79.4652 95.7727C80.3196 96.1893 81.1365 96.9351 81.9159 98.0103C82.6871 99.0742 83.1377 100.077 83.2678 101.018C83.3979 101.96 83.2706 102.821 82.8861 103.6C82.5046 104.36 81.9235 105.023 81.1425 105.589ZM80.6626 104.927C81.3417 104.435 81.6763 103.717 81.6664 102.775C81.6566 101.832 81.1512 100.671 80.1503 99.2901C79.1494 97.9094 78.1986 97.0621 77.2978 96.7482C76.3969 96.4344 75.607 96.5236 74.9279 97.0159C74.2376 97.5163 73.9014 98.2434 73.9194 99.1972C73.9488 100.143 74.4639 101.306 75.4648 102.687C76.4657 104.067 77.4068 104.913 78.2881 105.224C79.1807 105.526 79.9722 105.427 80.6626 104.927ZM93.8113 96.3279L85.7261 85.1743C85.3488 84.6537 84.9365 84.3827 84.4895 84.3615C84.0425 84.3402 83.4599 84.5726 82.7418 85.0586L82.2619 84.3966C82.4964 84.2438 82.7367 84.0869 82.9825 83.926C83.2397 83.7568 83.4928 83.582 83.7418 83.4015C84.1266 83.1225 84.4821 82.8389 84.8084 82.5506C85.1264 82.251 85.4152 81.9468 85.6746 81.6378L93.7598 92.7915C94.1372 93.3121 94.5478 93.5928 94.9917 93.6335C95.4387 93.6548 96.0229 93.4126 96.7441 92.9071L97.224 93.5692C96.9895 93.722 96.7492 93.8788 96.5034 94.0398C96.2575 94.2008 96.0044 94.3756 95.7441 94.5643C95.3593 94.8432 95.0038 95.1268 94.6775 95.4151C94.3595 95.7147 94.0707 96.019 93.8113 96.3279ZM91.1829 98.3109C90.4472 98.8442 89.6765 99.1266 88.8707 99.1583C88.0763 99.1817 87.2858 98.9605 86.4993 98.4948C85.7241 98.0208 84.996 97.3141 84.3151 96.3748C83.6177 95.4128 83.1732 94.466 82.9814 93.5346C82.801 92.595 82.8696 91.7252 83.1874 90.9251C83.5083 90.1054 84.0706 89.4044 84.8741 88.8219C85.5305 88.346 86.182 88.0896 86.8285 88.0526C87.475 88.0156 88.0082 88.1557 88.428 88.4729L88.7153 89.1192C88.3169 88.8555 87.8546 88.7418 87.3284 88.7779C86.8052 88.7946 86.2947 88.9834 85.7967 89.3444C84.9818 89.9351 84.5957 90.7243 84.6384 91.712C84.6728 92.6884 85.1331 93.7877 86.0191 95.01C86.8805 96.1984 87.7529 96.9731 88.6362 97.3342C89.5226 97.6758 90.3562 97.5635 91.1371 96.9974C91.6691 96.6118 92.0003 96.1041 92.1307 95.4743C92.2643 94.825 92.1765 94.1204 91.8674 93.3604L92.4122 93.8977C92.7757 94.7565 92.8562 95.57 92.6535 96.3384C92.4427 97.0955 91.9525 97.753 91.1829 98.3109ZM101.464 90.8584C100.694 91.4163 99.9395 91.6612 99.1996 91.5933C98.4629 91.5058 97.8484 91.1225 97.3561 90.4435C96.9705 89.9115 96.7833 89.3912 96.7943 88.8825C96.8054 88.3738 96.9393 87.8797 97.1959 87.4001C97.4639 86.9124 97.7735 86.4463 98.1246 86.0018C98.4789 85.5378 98.8171 85.1114 99.1394 84.7223C99.473 84.3251 99.711 83.9627 99.8533 83.6351C99.9988 83.288 99.9813 82.9899 99.8008 82.7409L99.2101 81.926C98.8245 81.3941 98.3748 81.1072 97.861 81.0653C97.3472 81.0234 96.7791 81.228 96.1566 81.6792C95.7039 82.0074 95.3699 82.3445 95.1545 82.6905C94.9392 83.0365 94.8972 83.3 95.0284 83.4811C95.1105 83.5943 95.2362 83.6844 95.4057 83.7515C95.5669 83.8072 95.7349 83.8841 95.9094 83.982C96.0871 84.0604 96.2375 84.1844 96.3605 84.3542C96.5164 84.5692 96.5587 84.8062 96.4874 85.0651C96.4274 85.3157 96.2672 85.5354 96.0069 85.7241C95.7013 85.9456 95.3826 86.0299 95.0507 85.977C94.7107 85.9127 94.4217 85.7165 94.1837 85.3883C93.8802 84.9695 93.7679 84.4812 93.8469 83.9233C93.9259 83.3653 94.1657 82.803 94.5663 82.2363C94.9701 81.6502 95.5115 81.1109 96.1906 80.6187C96.8923 80.11 97.5418 79.8032 98.1391 79.6983C98.7363 79.5934 99.3009 79.6934 99.8328 79.9985C100.376 80.2953 100.91 80.8059 101.435 81.5302L104.684 86.0121C104.881 86.2837 105.07 86.4489 105.251 86.5078C105.431 86.5666 105.618 86.5263 105.81 86.3869C106.003 86.2474 106.162 86.0627 106.289 85.8327C106.408 85.5913 106.508 85.3371 106.591 85.07L107.307 85.3795C107.202 85.8531 107.034 86.2768 106.804 86.6505C106.594 87.0273 106.279 87.3675 105.861 87.6711C104.774 88.4587 103.87 88.3545 103.148 87.3585C103.173 88.0831 103.047 88.7438 102.772 89.3404C102.488 89.9258 102.052 90.4318 101.464 90.8584ZM101.358 89.3552C101.777 89.0516 102.094 88.6667 102.308 88.2005C102.523 87.7342 102.626 87.2102 102.619 86.6285L100.428 83.6067C100.455 83.8812 100.371 84.1832 100.179 84.5128C99.9892 84.8228 99.7697 85.1632 99.5205 85.5338C99.263 85.8931 99.0332 86.2668 98.8312 86.655C98.6404 87.035 98.5335 87.4233 98.5102 87.8199C98.487 88.2166 98.619 88.613 98.9061 89.0091C99.2179 89.4392 99.5885 89.6885 100.018 89.757C100.459 89.8173 100.906 89.6833 101.358 89.3552ZM112.801 82.666L104.43 77.7276C103.982 77.4658 103.554 77.3526 103.148 77.388C102.734 77.412 102.302 77.5783 101.853 77.887L101.373 77.2249C101.796 76.9522 102.188 76.6943 102.547 76.4513C102.906 76.2083 103.295 75.935 103.714 75.6315C104.212 75.2705 104.638 74.9531 104.992 74.6792C105.346 74.4054 105.661 74.1505 105.939 73.9145L106.419 74.5766C105.87 75.0095 105.591 75.3754 105.584 75.6745C105.587 75.9653 105.873 76.2761 106.441 76.6069L112.269 80.0738L112.059 80.3556L110.723 75.0828C110.549 74.4145 110.333 73.9147 110.076 73.5834C109.822 73.2325 109.525 73.0502 109.187 73.0363C108.852 73.0029 108.467 73.1266 108.032 73.4075L107.552 72.7454C107.855 72.5435 108.117 72.3702 108.341 72.2256C108.556 72.0697 108.763 71.9277 108.964 71.7996C109.168 71.6519 109.394 71.4878 109.643 71.3073C109.971 71.0694 110.295 70.8258 110.615 70.5766C110.936 70.3274 111.21 70.1109 111.44 69.9273L111.92 70.5894C111.48 70.9597 111.203 71.411 111.088 71.9432C110.976 72.4558 111.026 73.1193 111.236 73.9336L113.395 82.2353L112.801 82.666ZM113.238 88.3058C112.695 88.6996 112.151 88.8781 111.606 88.8413C111.061 88.8044 110.621 88.554 110.284 88.09C110.03 87.7391 109.928 87.3726 109.979 86.9904C110.039 86.6194 110.238 86.3109 110.577 86.0648C110.838 85.8761 111.087 85.7907 111.324 85.8085C111.57 85.8377 111.774 85.9654 111.938 86.1918C112.053 86.3502 112.123 86.5066 112.149 86.6608C112.194 86.8181 112.225 86.9682 112.242 87.1111C112.26 87.2539 112.305 87.3763 112.379 87.4782C112.527 87.6819 112.725 87.6935 112.974 87.513C113.223 87.3325 113.379 87.0722 113.444 86.7322C113.516 86.4034 113.495 86.0046 113.379 85.5358L112.534 82.0829L113.34 82.0163L114.12 85.1284C114.24 85.6281 114.289 86.0762 114.266 86.4729C114.254 86.8614 114.164 87.2024 113.998 87.4961C113.831 87.7898 113.577 88.0597 113.238 88.3058ZM114.595 69.3494L114.051 68.9925C114.512 68.3653 114.781 67.7727 114.86 67.2148C114.931 66.6455 114.831 66.1742 114.56 65.8007C114.363 65.529 114.163 65.4671 113.959 65.6147C113.846 65.6968 113.742 65.8153 113.647 65.9704C113.556 66.1059 113.419 66.2393 113.238 66.3705C112.91 66.6085 112.57 66.6994 112.219 66.6433C111.871 66.5678 111.577 66.3659 111.34 66.0377C111.077 65.6755 110.988 65.291 111.073 64.8842C111.161 64.4578 111.409 64.0969 111.816 63.8016C112.292 63.457 112.802 63.3633 113.348 63.5203C113.885 63.6661 114.379 64.0502 114.83 64.6727C115.364 65.4083 115.607 66.1728 115.56 66.9661C115.517 67.7399 115.195 68.5344 114.595 69.3494ZM128.168 71.501C127.681 71.8538 127.227 72.0966 126.805 72.2296C126.403 72.3656 126.062 72.4663 125.781 72.5317C125.492 72.5857 125.274 72.666 125.127 72.7727C124.867 72.9614 124.802 73.2763 124.932 73.7174L124.286 74.185C124.112 73.897 123.916 73.5904 123.697 73.2653C123.479 72.9402 123.222 72.5739 122.927 72.1665C122.635 71.7395 122.29 71.2642 121.893 70.7405L122.538 70.2728C123.378 71.0973 124.203 71.5693 125.015 71.6888C125.838 71.8 126.657 71.5603 127.472 70.9696C128.06 70.543 128.428 70.0862 128.576 69.5993C128.716 69.1011 128.617 68.62 128.281 68.1559C127.961 67.7146 127.533 67.4811 126.996 67.4556C126.463 67.4106 125.701 67.5743 124.711 67.9469C123.476 68.4105 122.457 68.5883 121.653 68.4801C120.841 68.3607 120.185 67.9558 119.685 67.2654C119.152 66.5297 118.972 65.7705 119.147 64.9876C119.314 64.1934 119.81 63.4969 120.637 62.898C121.078 62.5781 121.488 62.3583 121.868 62.2386C122.247 62.1189 122.576 62.0362 122.853 61.9904C123.142 61.9364 123.372 61.8478 123.541 61.7248C123.654 61.6427 123.722 61.5334 123.744 61.3967C123.766 61.2601 123.739 61.0807 123.664 60.8586L124.326 60.3787C124.476 60.6327 124.644 60.8997 124.829 61.1795C125.007 61.448 125.217 61.7618 125.46 62.1209C125.706 62.4604 126.011 62.8694 126.375 63.3479L125.713 63.8278C125.067 63.1742 124.348 62.8144 123.558 62.7484C122.76 62.6711 122.021 62.8786 121.342 63.3708C120.844 63.7318 120.545 64.1296 120.446 64.5642C120.35 64.9792 120.453 65.3961 120.757 65.8149C121.077 66.2563 121.525 66.4928 122.1 66.5246C122.667 66.545 123.488 66.3556 124.563 65.9565C125.753 65.5257 126.714 65.3638 127.448 65.4708C128.193 65.5696 128.816 65.9641 129.316 66.6545C129.907 67.4694 130.103 68.3114 129.904 69.1805C129.697 70.0384 129.118 70.8119 128.168 71.501ZM110.92 122.291C110.275 122.759 109.618 123.02 108.949 123.073C108.28 123.126 107.718 123.042 107.263 122.819L107.036 122.077C107.437 122.321 107.907 122.421 108.444 122.377C108.982 122.333 109.488 122.138 109.964 121.794C110.79 121.195 111.182 120.401 111.139 119.414C111.096 118.426 110.62 117.304 109.709 116.048C108.864 114.882 108.01 114.12 107.146 113.762C106.294 113.396 105.499 113.48 104.764 114.013C104.255 114.382 103.892 114.895 103.678 115.551C103.455 116.196 103.446 116.815 103.652 117.409L103.25 117.104C102.941 116.344 102.92 115.565 103.187 114.767C103.458 113.95 103.961 113.274 104.696 112.741C105.409 112.224 106.156 111.968 106.936 111.972C107.719 111.957 108.494 112.181 109.261 112.643C110.04 113.098 110.757 113.778 111.413 114.683C112.119 115.656 112.566 116.618 112.754 117.569C112.935 118.509 112.874 119.39 112.573 120.213C112.263 121.024 111.713 121.717 110.92 122.291ZM106.854 125.291L105.984 125.093C106.048 124.822 106.065 124.585 106.038 124.38C106.014 124.156 105.949 123.936 105.843 123.719C105.738 123.502 105.582 123.252 105.377 122.969L98.8427 113.954C98.4653 113.434 98.0531 113.163 97.6061 113.141C97.1704 113.112 96.5878 113.344 95.8584 113.839L95.3785 113.176C95.5904 113.04 95.8193 112.891 96.0652 112.731C96.3223 112.561 96.5641 112.395 96.7905 112.231C97.2206 111.919 97.5987 111.619 97.9249 111.331C98.2543 111.023 98.5374 110.723 98.7742 110.43L107.77 122.84C107.624 123.067 107.488 123.32 107.363 123.601C107.23 123.87 107.121 124.148 107.035 124.434C106.941 124.71 106.881 124.995 106.854 125.291ZM121.292 114.773C120.511 115.339 119.695 115.689 118.843 115.824C117.993 115.938 117.142 115.788 116.287 115.371C115.433 114.954 114.62 114.214 113.849 113.15C113.07 112.075 112.615 111.067 112.485 110.125C112.355 109.184 112.486 108.329 112.879 107.561C113.263 106.781 113.84 106.113 114.61 105.555C115.391 104.989 116.206 104.648 117.055 104.533C117.907 104.399 118.76 104.54 119.615 104.957C120.469 105.373 121.286 106.119 122.066 107.194C122.837 108.258 123.287 109.261 123.417 110.202C123.548 111.144 123.42 112.005 123.036 112.784C122.654 113.544 122.073 114.207 121.292 114.773ZM120.812 114.111C121.491 113.619 121.826 112.901 121.816 111.959C121.806 111.016 121.301 109.855 120.3 108.474C119.299 107.093 118.348 106.246 117.447 105.932C116.547 105.618 115.757 105.708 115.078 106.2C114.387 106.7 114.051 107.427 114.069 108.381C114.098 109.327 114.614 110.49 115.614 111.871C116.615 113.251 117.556 114.097 118.438 114.408C119.33 114.71 120.122 114.611 120.812 114.111ZM131.838 107.128C131.057 107.694 130.241 108.045 129.389 108.179C128.54 108.294 127.688 108.143 126.833 107.726C125.979 107.31 125.166 106.57 124.395 105.506C123.616 104.431 123.161 103.422 123.031 102.481C122.901 101.539 123.032 100.684 123.425 99.9159C123.809 99.1365 124.386 98.4678 125.156 97.91C125.937 97.3439 126.752 97.0034 127.601 96.8886C128.453 96.7543 129.307 96.8954 130.161 97.3119C131.015 97.7285 131.832 98.4743 132.612 99.5495C133.383 100.613 133.833 101.616 133.964 102.558C134.094 103.499 133.966 104.36 133.582 105.139C133.2 105.899 132.619 106.562 131.838 107.128ZM131.358 106.466C132.037 105.974 132.372 105.257 132.362 104.314C132.352 103.372 131.847 102.21 130.846 100.829C129.845 99.4486 128.894 98.6013 127.993 98.2875C127.093 97.9736 126.303 98.0628 125.624 98.5551C124.933 99.0555 124.597 99.7826 124.615 100.736C124.645 101.682 125.16 102.845 126.161 104.226C127.161 105.607 128.103 106.452 128.984 106.763C129.876 107.066 130.668 106.967 131.358 106.466ZM137.291 102.813L136.812 102.151C137.531 101.595 137.959 101.138 138.096 100.779C138.237 100.401 138.147 99.9914 137.827 99.55L131.243 90.4676C130.857 89.9356 130.445 89.6647 130.006 89.6548C129.559 89.6335 128.977 89.8659 128.259 90.3519L127.779 89.6898C128.025 89.5289 128.271 89.3679 128.516 89.2069C128.774 89.0377 129.021 88.867 129.259 88.6947C130.017 88.1451 130.661 87.5572 131.192 86.9311L139.474 98.3563C139.794 98.7977 140.11 99.0433 140.422 99.0932C140.726 99.1317 141.135 98.9817 141.65 98.6434L142.13 99.3055C141.907 99.45 141.593 99.6602 141.188 99.9361C140.776 100.201 140.366 100.48 139.959 100.776C139.461 101.137 138.959 101.517 138.455 101.917C137.943 102.306 137.555 102.605 137.291 102.813ZM143.624 98.2225L143.144 97.5604C143.589 97.1511 143.814 96.8416 143.817 96.6319C143.824 96.4028 143.619 96.1799 143.203 95.9635L141.378 94.9817C140.835 94.6849 140.372 94.5459 139.988 94.5649C139.616 94.5756 139.209 94.7409 138.768 95.0609L137.376 96.07L136.896 95.4079L138.458 94.2757C138.831 94.005 139.102 93.7228 139.269 93.4291C139.436 93.1355 139.524 92.7692 139.534 92.3304L139.545 91.4163C139.556 91.0278 139.515 90.721 139.421 90.4957C139.319 90.2592 139.167 90.1099 138.967 90.048C138.77 89.9665 138.518 89.9764 138.212 90.0776C137.897 90.1676 137.526 90.3587 137.099 90.6509L136.619 89.9888C136.944 89.7704 137.32 89.5151 137.747 89.2229C138.174 88.9306 138.631 88.6081 139.118 88.2553C139.435 88.0256 139.723 87.8164 139.984 87.6277C140.236 87.4277 140.475 87.2457 140.701 87.0816C140.919 86.9062 141.121 86.7431 141.305 86.5923L141.785 87.2544C141.415 87.6259 141.128 87.9805 140.924 88.3183C140.72 88.6561 140.575 89.0032 140.488 89.3597C140.413 89.708 140.367 90.1211 140.351 90.5989L140.365 93.3337L139.645 93.2339C139.995 93.0495 140.318 92.9359 140.615 92.8932C140.924 92.8423 141.259 92.8757 141.62 92.9934C141.985 93.0917 142.411 93.2747 142.899 93.5427L144.521 94.3869C144.976 94.6096 145.368 94.7572 145.696 94.8297C146.028 94.8826 146.359 94.8502 146.688 94.7326C147.017 94.6149 147.409 94.4171 147.863 94.1393L148.343 94.8014C147.905 95.1019 147.544 95.3546 147.261 95.5597C146.97 95.7535 146.717 95.9284 146.502 96.0842C146.29 96.2206 146.082 96.3626 145.879 96.5103C145.55 96.7482 145.232 96.9877 144.923 97.2287C144.606 97.4584 144.173 97.7897 143.624 98.2225Z" fill="black"/>
<path d="M140.092 68.4766L139.612 67.8145C140.329 67.2782 140.757 66.821 140.897 66.443C141.046 66.0763 140.956 65.6666 140.628 65.2139L134.376 56.5898C133.982 56.0466 133.566 55.77 133.127 55.76C132.68 55.7388 132.102 55.9768 131.392 56.4742L130.912 55.8121C131.147 55.6593 131.387 55.5025 131.633 55.3415C131.879 55.1805 132.132 55.0057 132.392 54.817C133.184 54.2427 133.828 53.6548 134.325 53.0534L142.213 63.9354C142.549 64.3994 142.963 64.6004 143.453 64.5385C143.952 64.4879 144.641 64.1524 145.52 63.532L146 64.1941C145.788 64.3304 145.503 64.5201 145.144 64.7631C144.793 65.0175 144.41 65.2866 143.994 65.5707C143.578 65.8547 143.178 66.1362 142.793 66.4151C142.239 66.8171 141.711 67.2084 141.21 67.5889C140.717 67.9807 140.344 68.2766 140.092 68.4766ZM143.296 60.5348C142.685 60.9778 142.067 61.2446 141.442 61.335C140.82 61.406 140.272 61.2937 139.799 60.998L139.487 60.3176C139.908 60.5649 140.372 60.669 140.879 60.6297C141.388 60.5709 141.875 60.3733 142.339 60.0369C143.154 59.4462 143.54 58.657 143.498 57.6693C143.455 56.6816 142.978 55.5596 142.068 54.3033C141.214 53.1263 140.36 52.3644 139.505 52.0178C138.652 51.6516 137.864 51.7311 137.139 52.2561C136.641 52.6171 136.281 53.1201 136.058 53.7652C135.827 54.3989 135.803 55.0207 135.986 55.6304L135.544 55.1996C135.279 54.4767 135.288 53.7275 135.572 52.952C135.859 52.157 136.365 51.497 137.089 50.9719C137.802 50.4551 138.544 50.1931 139.316 50.1861C140.099 50.1709 140.869 50.3987 141.624 50.8695C142.383 51.3209 143.091 51.9992 143.747 52.9047C144.453 53.878 144.904 54.8458 145.101 55.808C145.289 56.759 145.233 57.6458 144.932 58.4685C144.622 59.2799 144.077 59.9687 143.296 60.5348ZM153.67 53.0149C152.889 53.5809 152.072 53.9311 151.22 54.0655C150.371 54.1803 149.519 54.0294 148.665 53.6129C147.81 53.1964 146.998 52.4562 146.226 51.3923C145.447 50.3171 144.992 49.3087 144.862 48.3671C144.732 47.4255 144.864 46.5707 145.256 45.8025C145.641 45.0231 146.218 44.3544 146.988 43.7966C147.768 43.2305 148.583 42.89 149.433 42.7752C150.285 42.6409 151.138 42.782 151.992 43.1985C152.847 43.6151 153.664 44.3609 154.443 45.4361C155.214 46.5 155.665 47.5027 155.795 48.4443C155.925 49.3859 155.798 50.2464 155.413 51.0259C155.032 51.7858 154.451 52.4488 153.67 53.0149ZM153.19 52.3528C153.869 51.8605 154.203 51.1432 154.194 50.2007C154.184 49.2583 153.678 48.0967 152.678 46.7159C151.677 45.3352 150.726 44.4879 149.825 44.1741C148.924 43.8602 148.134 43.9494 147.455 44.4417C146.765 44.9421 146.429 45.6692 146.447 46.623C146.476 47.5685 146.991 48.7317 147.992 50.1124C148.993 51.4932 149.934 52.3389 150.815 52.6497C151.708 52.9522 152.499 52.8532 153.19 52.3528ZM161.986 52.606L161.506 51.9439C162.222 51.4076 162.651 50.9504 162.791 50.5724C162.94 50.2057 162.85 49.796 162.522 49.3433L156.27 40.7192C155.876 40.176 155.46 39.8994 155.021 39.8894C154.574 39.8682 153.996 40.1062 153.286 40.6036L152.806 39.9415C153.04 39.7887 153.281 39.6318 153.526 39.4709C153.772 39.3099 154.025 39.1351 154.286 38.9464C155.078 38.3721 155.722 37.7842 156.219 37.1827L164.107 48.0647C164.443 48.5288 164.857 48.7298 165.347 48.6679C165.845 48.6173 166.534 48.2818 167.414 47.6614L167.894 48.3235C167.682 48.4598 167.397 48.6495 167.038 48.8925C166.687 49.1469 166.304 49.416 165.888 49.7001C165.472 49.9841 165.072 50.2656 164.687 50.5445C164.133 50.9465 163.605 51.3378 163.104 51.7183C162.611 52.1101 162.238 52.406 161.986 52.606ZM165.19 44.6642C164.579 45.1072 163.96 45.3739 163.335 45.4644C162.714 45.5354 162.166 45.423 161.693 45.1274L161.381 44.447C161.802 44.6943 162.266 44.7983 162.772 44.7591C163.282 44.7002 163.769 44.5027 164.233 44.1663C165.048 43.5756 165.434 42.7864 165.391 41.7987C165.349 40.811 164.872 39.689 163.962 38.4327C163.108 37.2557 162.254 36.4938 161.398 36.1472C160.546 35.781 159.758 35.8605 159.033 36.3855C158.535 36.7465 158.175 37.2495 157.952 37.8946C157.721 38.5283 157.696 39.1501 157.879 39.7598L157.438 39.329C157.173 38.6061 157.182 37.8569 157.466 37.0814C157.753 36.2864 158.258 35.6264 158.983 35.1013C159.696 34.5844 160.438 34.3225 161.21 34.3155C161.993 34.3003 162.763 34.5281 163.518 34.9989C164.277 35.4503 164.985 36.1286 165.641 37.034C166.347 38.0074 166.798 38.9752 166.995 39.9374C167.183 40.8884 167.127 41.7752 166.825 42.5979C166.516 43.4093 165.971 44.0981 165.19 44.6642ZM175.167 37.4318C174.307 38.0553 173.444 38.258 172.578 38.0398C171.703 37.8103 170.893 37.1805 170.146 36.1506L167.538 32.5516C167.144 32.0083 166.722 31.7358 166.272 31.7341C165.825 31.7129 165.252 31.9468 164.553 32.4359L164.073 31.7738C164.274 31.6457 164.497 31.5011 164.743 31.3402C165 31.171 165.253 30.9962 165.502 30.8157C165.887 30.5367 166.243 30.2531 166.569 29.9648C166.887 29.6652 167.187 29.3528 167.469 29.0274L171.899 35.139C172.416 35.852 172.942 36.2912 173.476 36.4564C174.021 36.6135 174.571 36.491 175.126 36.089C175.567 35.7691 175.89 35.3451 176.094 34.8172C176.29 34.2779 176.35 33.6568 176.271 32.9537L176.796 33.713C176.913 34.4223 176.829 35.1046 176.545 35.7598C176.26 36.415 175.801 36.9724 175.167 37.4318ZM177.88 35.3873L172.97 28.6136C172.576 28.0704 172.183 27.7774 171.789 27.7346C171.387 27.6805 170.882 27.8653 170.274 28.2888L169.794 27.6267C169.995 27.4985 170.207 27.3622 170.43 27.2176C170.665 27.0648 170.895 26.9064 171.122 26.7423C171.484 26.4798 171.811 26.2167 172.103 25.953C172.399 25.6698 172.67 25.3779 172.919 25.0771L177.829 31.8508C178.222 32.3941 178.643 32.6763 179.09 32.6976C179.529 32.7075 180.103 32.4638 180.813 31.9665L181.293 32.6286C181.073 32.7536 180.838 32.9064 180.589 33.0868C180.343 33.2478 180.102 33.4144 179.864 33.5867C179.479 33.8657 179.118 34.1534 178.78 34.4499C178.462 34.7495 178.162 35.0619 177.88 35.3873ZM182.25 31.9346L181.77 31.2725C182.475 30.7443 182.902 30.2969 183.05 29.9303C183.21 29.5554 183.122 29.1359 182.786 28.6719L176.202 19.5894C175.824 19.0688 175.412 18.7979 174.965 18.7766C174.53 18.7472 173.947 18.9796 173.218 19.4738L172.738 18.8117C172.972 18.6589 173.212 18.5021 173.458 18.3411C173.715 18.1719 173.969 17.9971 174.218 17.8166C174.614 17.5295 174.975 17.2417 175.301 16.9535C175.63 16.6457 175.914 16.3455 176.15 16.053L184.432 27.4782C184.769 27.9422 185.14 28.1566 185.546 28.1212C185.952 28.0859 186.51 27.8196 187.22 27.3222L187.7 27.9843C187.522 28.0961 187.28 28.2627 186.974 28.4842C186.672 28.6862 186.341 28.9087 185.982 29.1517C185.623 29.3947 185.274 29.6393 184.934 29.8854C184.414 30.2628 183.901 30.6515 183.397 31.0515C182.885 31.4402 182.502 31.7346 182.25 31.9346ZM191.938 25.2748C191.168 25.8326 190.413 26.0776 189.674 26.0097C188.937 25.9222 188.322 25.5389 187.83 24.8598C187.445 24.3279 187.257 23.8076 187.268 23.2989C187.279 22.7902 187.413 22.2961 187.67 21.8165C187.938 21.3288 188.247 20.8627 188.599 20.4182C188.953 19.9542 189.291 19.5277 189.613 19.1387C189.947 18.7415 190.185 18.3791 190.327 18.0515C190.473 17.7043 190.455 17.4063 190.275 17.1573L189.684 16.3424C189.298 15.8105 188.849 15.5236 188.335 15.4816C187.821 15.4397 187.253 15.6444 186.631 16.0956C186.178 16.4238 185.844 16.7609 185.629 17.1069C185.413 17.4529 185.371 17.7164 185.502 17.8975C185.584 18.0107 185.71 18.1008 185.88 18.1679C186.041 18.2236 186.209 18.3005 186.383 18.3984C186.561 18.4767 186.711 18.6008 186.835 18.7706C186.99 18.9856 187.033 19.2226 186.961 19.4814C186.901 19.7321 186.741 19.9518 186.481 20.1405C186.175 20.362 185.857 20.4463 185.525 20.3934C185.185 20.3291 184.896 20.1329 184.658 19.8047C184.354 19.3859 184.242 18.8976 184.321 18.3396C184.4 17.7817 184.64 17.2194 185.04 16.6527C185.444 16.0665 185.986 15.5273 186.665 15.0351C187.366 14.5264 188.016 14.2196 188.613 14.1147C189.21 14.0098 189.775 14.1098 190.307 14.4149C190.85 14.7117 191.384 15.2223 191.909 15.9466L195.158 20.4284C195.355 20.7001 195.544 20.8653 195.725 20.9242C195.905 20.983 196.092 20.9427 196.284 20.8033C196.477 20.6638 196.636 20.4791 196.763 20.249C196.882 20.0077 196.982 19.7535 197.065 19.4864L197.781 19.7959C197.676 20.2695 197.508 20.6931 197.278 21.0669C197.068 21.4437 196.753 21.7839 196.335 22.0875C195.248 22.8751 194.344 22.7709 193.622 21.7749C193.647 22.4995 193.521 23.1601 193.246 23.7568C192.962 24.3422 192.526 24.8482 191.938 25.2748ZM191.832 23.7716C192.251 23.468 192.568 23.0831 192.782 22.6169C192.997 22.1506 193.1 21.6266 193.093 21.0449L190.902 18.0231C190.929 18.2975 190.845 18.5996 190.653 18.9292C190.463 19.2392 190.244 19.5796 189.994 19.9502C189.737 20.3095 189.507 20.6832 189.305 21.0714C189.114 21.4514 189.007 21.8397 188.984 22.2363C188.961 22.633 189.093 23.0294 189.38 23.4255C189.692 23.8556 190.062 24.1049 190.492 24.1734C190.933 24.2337 191.38 24.0997 191.832 23.7716ZM199.017 19.7804L198.537 19.1184C199.253 18.582 199.686 18.1305 199.834 17.7638C199.975 17.3858 199.881 16.9705 199.553 16.5178L196.144 11.8152C195.75 11.272 195.328 10.9995 194.878 10.9978C194.439 10.9878 193.866 11.2218 193.159 11.6996L192.679 11.0375C192.925 10.8765 193.171 10.7156 193.417 10.5546C193.663 10.3936 193.91 10.2229 194.159 10.0424C194.918 9.49273 195.562 8.90485 196.092 8.27877L201.138 15.2392C201.482 15.7145 201.9 15.9212 202.39 15.8593C202.88 15.7974 203.565 15.4562 204.445 14.8358L204.925 15.4979C204.713 15.6343 204.432 15.8296 204.081 16.0839C203.722 16.3269 203.334 16.5905 202.919 16.8745C202.503 17.1585 202.103 17.44 201.718 17.7189C201.164 18.1209 200.64 18.5179 200.147 18.9097C199.646 19.2902 199.269 19.5804 199.017 19.7804ZM201.43 8.88986C201.181 9.07035 200.933 9.14602 200.688 9.11686C200.434 9.07638 200.229 8.94862 200.073 8.73359C199.967 8.58646 199.901 8.43579 199.875 8.28159C199.842 8.11608 199.816 7.96188 199.799 7.819C199.773 7.6648 199.724 7.53677 199.65 7.43491C199.486 7.20856 199.228 7.22255 198.878 7.47687C198.606 7.67377 198.367 7.95088 198.159 8.30821C197.952 8.66553 197.81 9.05327 197.734 9.47143C197.649 9.87828 197.645 10.2781 197.723 10.6708L197.172 9.98236C197.092 9.22892 197.183 8.53278 197.445 7.89395C197.718 7.24691 198.121 6.73059 198.653 6.345C199.173 5.96761 199.703 5.81685 200.241 5.89271C200.771 5.95726 201.217 6.23852 201.578 6.7365C201.865 7.13262 201.991 7.53312 201.957 7.93799C201.934 8.33465 201.758 8.65194 201.43 8.88986Z" fill="#00DC64"/>
</svg>
